<svg width="236" height="416" viewBox="0 0 236 416" fill="none" xmlns="http://www.w3.org/2000/svg">
<path d="M46.8727 297.247C94.546 254.504 134.865 190.166 193.745 178.638C198.345 177.019 202.561 175.458 206.93 173.782C215.442 170.399 226.823 166.86 236 160.753V410.382C231.216 411.705 226.405 412.764 221.56 413.581C217.946 414.222 214.253 414.692 210.632 414.875C194.863 417.273 170.672 408.629 176.539 384.473C178.899 372.712 185.054 362.029 189.895 351.177C192.356 345.838 194.432 340.557 195.579 335.049C196.618 327.535 198.202 310.558 187.687 313.628C184.001 314.556 179.487 316.806 176.04 318.25C133.181 338.56 85.7479 376.945 45.036 352.239C41.7565 349.611 38.927 346.18 37.0119 342.057C35.0969 337.934 33.7842 332.893 33.3859 327.16C32.7555 321.371 34.2148 316.091 36.6029 311.039C39.8399 306.041 43.2366 301.386 46.8727 297.247Z" fill="#8EA45B"/>
<path d="M180.166 94.4499C189.906 76.417 209.267 72.0018 224.317 68.0581C228.232 67.1113 232.127 66.5258 236 66.2578V113.404C234.118 112.457 232.202 111.681 230.312 111.101C226.749 110.079 222.882 109.288 218.862 108.612C206.729 106.87 192.848 106.682 182.487 99.89C181.304 98.2308 178.649 96.0598 180.166 94.4499Z" fill="#8EA45B"/>
<path d="M158.089 47.3109C170.797 43.8455 181.658 42.5478 194.034 41.178C200.5 40 204.086 38.4587 207 36.5C219.177 29.4293 226.457 12.5111 236 0.459473V259.421C192.588 254.803 150.306 222.499 125.145 185.363C113.787 168.487 107.393 147.734 105.988 126.484C105.53 119.227 105.49 112.21 106.113 104.901C106.645 76.0198 120.829 61.5655 138.976 53.4213C144.949 50.797 151.526 48.9236 158.089 47.3109Z" fill="#566531"/>
</svg>
