<svg width="168" height="456" viewBox="0 0 168 456" fill="none" xmlns="http://www.w3.org/2000/svg">
<path d="M23.92 355.381C21.0936 357.923 18.1526 362.02 15.7785 364.907C10.4253 372.06 5.22803 379.857 0.00012207 387.781V101.224C3.82849 101.652 7.90494 101.504 11.9301 101.146C15.7893 100.327 18.8722 99.8563 22.9519 99.4399C47.372 96.1934 62.1765 84.2283 77.9622 82.3918C85.971 81.4444 94.306 82.8562 101.158 85.2515C105.645 87.0214 109.577 89.5414 112.952 92.8116C116.408 95.9089 119.158 99.6417 121.352 104.125C129.037 119.585 128.68 137.375 125.608 153.101C123.322 164.967 118.462 175.345 112.928 184.977C96.0739 214.852 83.3039 250.413 90.5547 289.938C96.1762 320.718 127.302 310.139 144.987 305.993C148 305.235 151.711 307.353 154.285 308.841C162.413 312.441 164.076 319.804 162.958 327.867C161.77 335.643 157.882 343.945 154.664 349.943C152.962 353.575 151.111 357.093 149.34 360.438C145.717 367.3 142.476 374.219 139.862 380.675C138.253 383.674 136.725 386.5 134.965 389.384L130.172 396.998C128.424 399.422 126.756 401.673 125.008 404.096C117.643 413.274 109.465 421.13 100.545 427.952C97.6491 430.207 94.6022 432.347 91.4856 434.199C78.6613 443.682 53.2331 447.335 47.1414 423.234C43.7366 411.732 44.191 399.411 43.4055 387.555C43.0882 381.684 42.458 376.044 40.9008 370.638C38.3106 363.508 31.7846 347.756 23.92 355.381Z" fill="#8EA45B"/>
<path d="M103.205 190.612C105.352 198.392 105.68 206.341 104.531 213.653C84.0616 254.996 42.6872 269.468 0 267.132V9.09717C18.4951 17.7073 37.0911 30.9924 51.0543 40.7694C73.7206 58.1436 73.2932 93.3785 73.9056 121.063C74.746 125.995 75.9595 130.707 77.6548 135.435C84.1407 154.223 96.6105 171.588 103.205 190.612Z" fill="#566531"/>
</svg>
