<svg width="197" height="456" viewBox="0 0 197 456" fill="none" xmlns="http://www.w3.org/2000/svg">
<path d="M175.8 41.2137C179.893 40.2619 184.34 40.161 188.764 41.2058C191.411 41.831 194.183 42.829 197 44.2223V432.832L196.491 433.372C190.744 439.465 185.578 444.941 179.385 448.603C172.451 452.721 164.261 454.815 157.027 455.409C152.208 455.614 147.592 454.907 143.179 453.29C138.763 451.863 134.734 449.568 130.908 446.362C117.607 435.355 110.71 418.953 107.131 403.335C104.401 391.563 104.629 380.105 105.774 369.056C109.044 334.911 106.273 297.228 83.5961 264.053C65.9596 238.208 41.812 260.516 27.3343 271.486C24.8887 273.402 20.6377 272.974 17.6808 272.659C8.79118 272.67 4.28135 266.617 2.02898 258.794C-0.0428339 251.206 0.138992 242.04 0.644044 235.252C0.723599 231.242 0.98749 227.276 1.24759 223.5C1.77159 215.758 1.92312 208.119 1.69083 201.158C1.94336 197.764 2.19209 194.561 2.62895 191.211L3.91678 182.306C4.53039 179.381 5.14023 176.647 5.75384 173.722C8.75749 162.345 13.0401 151.845 18.4211 141.988C20.1521 138.752 22.0674 135.559 24.1633 132.601C32.0315 118.727 53.7853 105.063 69.1391 124.613C76.9215 133.742 81.5095 145.185 87.042 155.701C89.7161 160.937 92.5821 165.835 96.2005 170.143C101.463 175.607 113.823 187.351 117.914 177.19C119.464 173.719 120.488 168.78 121.486 165.179C132.033 118.939 131.206 57.9252 175.8 41.2137Z" fill="#8EA45B"/>
<path d="M87.9018 62.1568C100.61 58.6914 111.471 57.3938 123.846 56.0239C128.535 53.2008 132.329 50.9402 135.243 48.9815C154.342 43.1317 159.877 17.3913 174.276 6.82621C182.202 1.56721 189.789 -0.161976 197 0.721123V272.501C143.65 284.856 86.1491 246.245 54.9579 200.209C43.5999 183.333 37.2052 162.58 35.8009 141.33C35.3425 134.073 35.3023 127.056 35.9257 119.747C36.4574 90.8657 50.6413 76.4114 68.7889 68.2673C74.7611 65.6429 81.3387 63.7695 87.9018 62.1568Z" fill="#566531"/>
</svg>
