<svg width="221" height="431" viewBox="0 0 221 431" fill="none" xmlns="http://www.w3.org/2000/svg">
<path d="M16.6875 328.628C13.0011 329.557 8.48736 331.806 5.04037 333.25C3.367 334.043 1.68664 334.863 0 335.707L7.67884e-06 200.944C7.28952 197.679 14.8502 195.184 22.7446 193.638C27.3454 192.019 31.5616 190.458 35.9302 188.783C52.7877 182.081 80.8927 174.773 80.8603 148.111C80.3096 142.494 77.2264 137.63 73.2359 133.914C69.0931 130.315 64.1156 127.577 59.3121 126.101C55.7494 125.079 51.8818 124.288 47.8619 123.612C35.7295 121.871 21.8481 121.682 11.487 114.89C10.3044 113.231 7.64893 111.06 9.16575 109.45C18.9064 91.4171 38.2671 87.0019 53.3174 83.0582C68.6797 79.3429 83.7436 81.1902 98.3137 85.9632C103.197 87.6115 108.008 89.5467 112.666 91.5969C116.178 94.2814 120.451 96.3901 124.798 98.212C128.593 99.2901 131.539 100.313 135.341 101.85C158.451 110.382 177.129 106.714 191.946 112.461C199.471 115.363 206.182 120.503 211.123 125.821C214.264 129.481 216.564 133.545 218.022 138.013C219.632 142.366 220.321 146.951 220.168 151.94C219.744 169.2 211.121 184.764 201.062 197.236C193.5 206.662 184.356 213.57 174.965 219.503C146.111 238.052 118.214 263.535 106.17 301.872C96.7684 331.716 129.233 336.894 146.807 341.486C149.826 342.223 152.118 345.828 153.699 348.346C159.206 355.325 157.239 362.613 152.485 369.221C147.803 375.542 140.488 381.068 134.842 384.869C131.642 387.286 128.361 389.532 125.234 391.663C118.826 396.04 112.73 400.645 107.403 405.133C104.58 407.034 101.909 408.819 99.0064 410.548L91.2123 415.043C88.5345 416.37 86.0092 417.582 83.3314 418.908C72.5332 423.585 61.6336 426.713 50.5601 428.581C46.9464 429.223 43.2528 429.692 39.6319 429.875C23.8634 432.273 -0.328069 423.629 5.53862 399.473C7.89866 387.712 14.0536 377.029 18.8952 366.178C21.3559 360.838 23.432 355.557 24.5793 350.049C25.6181 342.535 27.2025 325.558 16.6875 328.628Z" fill="#8EA45B"/>
<path d="M139.219 236.254C137.485 244.136 134.063 251.318 129.633 257.249C87.974 287.319 38.9499 275.811 3.24991e-06 247.653L0 59.3539C7.65102 57.9209 13.3642 62.0005 23.0338 56.1782C27.7224 53.3551 31.5166 51.0945 34.4309 49.1358C50.5 38.3357 59.0644 17.5456 73.463 6.98051C113.57 -19.6281 144.97 44.1262 163.07 79.3985C175.001 105.346 158.17 136.304 145.785 161.072C144.225 165.825 143.098 170.558 142.389 175.532C139.352 195.174 142.271 216.352 139.219 236.254Z" fill="#566531"/>
</svg>
