<svg width="40" height="40" viewBox="0 0 40 40" fill="none" xmlns="http://www.w3.org/2000/svg">
<rect width="39.2632" height="39.2632" rx="4" fill="#566531"/>
<mask id="mask0" mask-type="alpha" maskUnits="userSpaceOnUse" x="0" y="0" width="40" height="40">
<path fill-rule="evenodd" clip-rule="evenodd" d="M0 19.6316C0 8.78937 8.78937 0 19.6316 0C30.4738 0 39.2632 8.78937 39.2632 19.6316C39.2632 30.4738 30.4738 39.2632 19.6316 39.2632C8.78937 39.2632 0 30.4738 0 19.6316Z" fill="white"/>
</mask>
<g mask="url(#mask0)">
<path fill-rule="evenodd" clip-rule="evenodd" d="M19.6323 9.16144C16.7887 9.16144 16.4319 9.17387 15.315 9.2247C14.2004 9.27574 13.4396 9.45221 12.7738 9.71113C12.0852 9.97856 11.501 10.3363 10.9191 10.9185C10.3366 11.5005 9.97891 12.0846 9.71061 12.773C9.45103 13.439 9.27434 14.2 9.22417 15.3143C9.17422 16.4311 9.16113 16.7882 9.16113 19.6317C9.16113 22.4753 9.17378 22.8311 9.22439 23.9479C9.27565 25.0625 9.45212 25.8234 9.71082 26.4891C9.97847 27.1778 10.3362 27.7619 10.9184 28.3439C11.5002 28.9263 12.0843 29.2849 12.7725 29.5523C13.4387 29.8113 14.1997 29.9877 15.3142 30.0388C16.431 30.0896 16.7877 30.102 19.631 30.102C22.4748 30.102 22.8305 30.0896 23.9474 30.0388C25.062 29.9877 25.8237 29.8113 26.4899 29.5523C27.1783 29.2849 27.7616 28.9263 28.3434 28.3439C28.9258 27.7619 29.2835 27.1778 29.5518 26.4893C29.8092 25.8234 29.9859 25.0623 30.0382 23.9481C30.0884 22.8313 30.1015 22.4753 30.1015 19.6317C30.1015 16.7882 30.0884 16.4313 30.0382 15.3145C29.9859 14.1998 29.8092 13.439 29.5518 12.7733C29.2835 12.0846 28.9258 11.5005 28.3434 10.9185C27.761 10.3361 27.1785 9.97834 26.4893 9.71113C25.8218 9.45221 25.0605 9.27574 23.9458 9.2247C22.829 9.17387 22.4735 9.16144 19.629 9.16144H19.6323ZM18.6936 11.0483C18.9724 11.0479 19.2834 11.0483 19.6329 11.0483C22.4284 11.0483 22.7598 11.0583 23.8637 11.1085C24.8846 11.1552 25.4386 11.3258 25.8077 11.4691C26.2963 11.6588 26.6447 11.8857 27.0109 12.2522C27.3774 12.6186 27.6042 12.9676 27.7944 13.4562C27.9378 13.8249 28.1086 14.3789 28.155 15.3998C28.2052 16.5035 28.2161 16.8351 28.2161 19.6294C28.2161 22.4236 28.2052 22.7552 28.155 23.8589C28.1083 24.8798 27.9378 25.4338 27.7944 25.8025C27.6047 26.2911 27.3774 26.639 27.0109 27.0052C26.6445 27.3717 26.2965 27.5986 25.8077 27.7883C25.4391 27.9323 24.8846 28.1024 23.8637 28.1491C22.76 28.1993 22.4284 28.2102 19.6329 28.2102C16.8371 28.2102 16.5057 28.1993 15.402 28.1491C14.3811 28.102 13.8271 27.9314 13.4578 27.7881C12.9692 27.5983 12.6202 27.3715 12.2537 27.005C11.8872 26.6386 11.6604 26.2904 11.4702 25.8016C11.3269 25.433 11.1561 24.8789 11.1096 23.858C11.0594 22.7543 11.0494 22.4227 11.0494 19.6267C11.0494 16.8307 11.0594 16.5009 11.1096 15.3972C11.1563 14.3763 11.3269 13.8223 11.4702 13.4532C11.6599 12.9646 11.8872 12.6156 12.2537 12.2491C12.6202 11.8826 12.9692 11.6558 13.4578 11.4656C13.8269 11.3216 14.3811 11.1515 15.402 11.1046C16.3679 11.0609 16.7422 11.0479 18.6936 11.0457V11.0483ZM25.2214 12.7868C24.5277 12.7868 23.965 13.3489 23.965 14.0428C23.965 14.7365 24.5277 15.2993 25.2214 15.2993C25.9151 15.2993 26.4778 14.7365 26.4778 14.0428C26.4778 13.3492 25.9151 12.7864 25.2214 12.7864V12.7868ZM19.633 14.2548C16.6635 14.2548 14.256 16.6623 14.256 19.6317C14.256 22.6011 16.6635 25.0075 19.633 25.0075C22.6024 25.0075 25.009 22.6011 25.009 19.6317C25.009 16.6623 22.6022 14.2548 19.6327 14.2548H19.633ZM19.6324 16.1416C21.5598 16.1416 23.1225 17.7041 23.1225 19.6317C23.1225 21.5591 21.5598 23.1218 19.6324 23.1218C17.7048 23.1218 16.1423 21.5591 16.1423 19.6317C16.1423 17.7041 17.7048 16.1416 19.6324 16.1416Z" fill="white"/>
</g>
</svg>
