<svg width="31" height="34" viewBox="0 0 31 34" fill="none" xmlns="http://www.w3.org/2000/svg">
<path d="M12.3683 0.0403926C12.3683 0.0628444 12.2101 0.0942775 12.0201 0.107748C11.4322 0.157141 10.9438 0.228988 10.9212 0.269403C10.9077 0.287365 10.7765 0.327777 10.6273 0.350228C10.1524 0.435546 9.88111 0.502902 9.88111 0.543316C9.88111 0.565768 9.84493 0.583731 9.79519 0.583731C9.68665 0.583731 9.23443 0.727423 9.20277 0.772326C9.18921 0.790289 9.03997 0.848663 8.87265 0.898059C8.70532 0.947451 8.56966 1.01031 8.56966 1.02828C8.56966 1.05073 8.47469 1.09564 8.36163 1.12707C8.24858 1.16299 8.12196 1.22136 8.08125 1.25729C8.04055 1.2977 7.9275 1.36506 7.83705 1.40547C7.74209 1.45037 7.66521 1.50426 7.66521 1.52671C7.66521 1.54916 7.58833 1.58958 7.49336 1.61203C7.3984 1.63897 7.28082 1.69735 7.23107 1.73776C7.18133 1.78267 7.04114 1.86798 6.91904 1.93085C6.79241 1.98922 6.66579 2.07454 6.63414 2.11944C6.60248 2.15986 6.53465 2.20027 6.47586 2.20925C6.42159 2.21823 6.38089 2.24967 6.38541 2.27661C6.38993 2.30355 6.33567 2.35294 6.26331 2.38438C6.19096 2.4203 6.12312 2.47868 6.11408 2.52358C6.10051 2.56849 6.05529 2.60441 6.01459 2.60441C5.97389 2.60441 5.89701 2.64931 5.84274 2.70769C5.78848 2.76157 5.68899 2.8424 5.62115 2.8873C5.5488 2.93221 5.49453 2.99507 5.49453 3.031C5.49453 3.06692 5.4674 3.09835 5.43574 3.09835C5.36338 3.09835 4.95186 3.48003 4.95186 3.54739C4.95186 3.57433 4.90212 3.61924 4.8388 3.64618C4.77549 3.67312 4.72575 3.70904 4.72575 3.72252C4.72575 3.74048 4.60365 3.87968 4.45441 4.03685C4.30518 4.19401 4.18308 4.36016 4.18308 4.40506C4.18308 4.45445 4.15142 4.49038 4.11524 4.49038C4.07907 4.49038 4.04741 4.51732 4.04741 4.55324C4.04741 4.58916 4.00671 4.63407 3.95697 4.64754C3.90722 4.6655 3.82582 4.75531 3.77608 4.8541C3.72633 4.94839 3.66754 5.02922 3.64945 5.02922C3.63136 5.02922 3.56805 5.11903 3.50474 5.23129C3.44143 5.34355 3.38264 5.43336 3.36455 5.43336C3.35098 5.43336 3.30124 5.51419 3.25602 5.61298C3.21079 5.71176 3.16105 5.79259 3.14296 5.79259C3.12487 5.79259 3.06608 5.89138 3.01182 6.01711C2.95755 6.13835 2.89876 6.24163 2.88067 6.24163C2.86258 6.24163 2.79927 6.36287 2.74048 6.51105C2.68169 6.65924 2.61838 6.78048 2.60029 6.78048C2.5822 6.78048 2.53246 6.89274 2.48724 7.02745C2.44654 7.16216 2.39679 7.27442 2.3787 7.27442C2.36061 7.27442 2.31539 7.35974 2.28373 7.46302C2.15259 7.8941 2.12546 7.97044 2.08476 7.99738C2.06214 8.01534 2.00788 8.19496 1.96266 8.40151C1.91743 8.60807 1.85864 8.7832 1.83603 8.79218C1.8089 8.80116 1.78629 8.84606 1.78629 8.89546C1.78629 9.0167 1.65062 9.70822 1.6054 9.8115C1.49686 10.0674 1.37929 11.2394 1.37929 12.0881V12.6584L1.21196 12.6854C0.755215 12.7572 0.302991 13.094 0.108534 13.4981L0 13.7181V15.7837V17.8493L0.104012 18.0828C0.162801 18.2085 0.248724 18.3477 0.293946 18.3882C0.366302 18.451 0.375346 18.5094 0.352735 18.7878C0.330124 19.0527 0.343691 19.1515 0.416047 19.3132C0.529103 19.5557 1.54209 21.0285 1.86317 21.4102C1.92195 21.4776 1.96718 21.5494 1.96718 21.5763C1.96718 21.5988 2.02597 21.6931 2.10284 21.7784C2.1752 21.8637 2.26112 21.9895 2.28826 22.0568C2.31539 22.1287 2.35609 22.1825 2.3787 22.1825C2.39679 22.1825 2.45106 22.2544 2.49176 22.3397C2.53246 22.425 2.5822 22.4969 2.60029 22.4969C2.6229 22.4969 2.68621 22.5867 2.74048 22.6989C2.79475 22.8112 2.85806 22.901 2.87615 22.901C2.89424 22.901 2.93946 22.9684 2.97564 23.0447C3.01634 23.1255 3.07965 23.2333 3.11583 23.2827C3.40977 23.6599 3.47309 23.7452 3.5364 23.8754C3.57258 23.9563 3.62232 24.0236 3.64493 24.0236C3.66754 24.0236 3.72633 24.1089 3.7806 24.2122C3.83487 24.32 3.9027 24.4188 3.93435 24.4367C3.96601 24.4547 4.01576 24.531 4.04741 24.6074C4.07907 24.6792 4.11977 24.7421 4.13786 24.7421C4.15594 24.7421 4.21473 24.8184 4.26448 24.9127C4.31422 25.0115 4.40919 25.1417 4.4725 25.2136C4.53581 25.2809 4.59008 25.3662 4.59008 25.3977C4.59008 25.4336 4.60817 25.4605 4.63078 25.4605C4.65339 25.4605 4.72123 25.5414 4.78001 25.6357C4.8388 25.7344 4.99256 25.9679 5.12371 26.1521C5.25033 26.3407 5.35886 26.5068 5.35886 26.5203C5.35886 26.5292 5.39504 26.5831 5.44026 26.6325C5.49001 26.6774 5.55332 26.7762 5.5895 26.8436C5.62567 26.9109 5.68899 26.9918 5.73421 27.0232C5.77491 27.0546 5.81109 27.1085 5.81109 27.1355C5.81109 27.1669 5.90153 27.3106 6.01459 27.4588C6.12764 27.6069 6.26331 27.8045 6.31306 27.8988C6.3628 27.9886 6.41707 28.065 6.43516 28.065C6.45325 28.065 6.49395 28.1188 6.52108 28.1862C6.55274 28.2581 6.63866 28.3838 6.71554 28.4691C6.78789 28.5544 6.8512 28.6487 6.8512 28.6757C6.8512 28.7026 6.8919 28.761 6.94165 28.8059C6.99139 28.8508 7.03209 28.9092 7.03209 28.9406C7.03209 29.0124 7.38935 29.5064 7.49336 29.5827C7.53859 29.6142 7.57476 29.6635 7.57476 29.6905C7.57476 29.7578 8.19883 30.4179 8.46112 30.629C8.85908 30.9433 9.17564 31.1633 9.22991 31.1633C9.26608 31.1633 9.29322 31.1813 9.29322 31.1993C9.29322 31.2711 10.3966 31.7875 10.6951 31.8594C10.8579 31.8998 11.0524 31.9581 11.1247 31.9941C11.2016 32.0255 11.4594 32.0794 11.6991 32.1108L12.1377 32.1692L12.2101 32.3353C12.3186 32.5688 12.7663 33.0179 12.9924 33.1167C13.0964 33.1616 13.1824 33.2155 13.1824 33.2379C13.1824 33.2559 13.2909 33.3053 13.4266 33.3412C13.6391 33.404 13.9692 33.4085 15.8143 33.3996C18.0212 33.3816 18.1387 33.3726 18.3287 33.193C18.3603 33.1661 18.4191 33.1391 18.4508 33.1391C18.5367 33.1391 19.1517 32.5284 19.1517 32.4431C19.1517 32.4072 19.1698 32.3757 19.1924 32.3757C19.215 32.3757 19.2557 32.3084 19.2874 32.2231C19.3326 32.0839 19.3507 32.0704 19.5904 32.0479C19.7306 32.0345 19.8572 32.003 19.8708 31.9761C19.8843 31.9537 19.9793 31.9222 20.0788 31.9043C20.2778 31.8728 20.6531 31.7471 20.6893 31.7022C20.7028 31.6887 20.834 31.6259 20.9832 31.5675C21.1325 31.5091 21.2636 31.4462 21.2772 31.4328C21.2907 31.4148 21.3767 31.3654 21.4716 31.3205C21.5621 31.2801 21.6389 31.2262 21.6389 31.2038C21.6389 31.1813 21.6616 31.1633 21.6887 31.1633C21.7204 31.1633 21.8425 31.0915 21.96 31.0062C22.0821 30.9209 22.1952 30.849 22.2178 30.849C22.2359 30.849 22.3082 30.7861 22.3851 30.7143C22.4575 30.638 22.6926 30.4134 22.9097 30.2069C23.2579 29.8701 23.5699 29.4929 23.9272 28.972C23.9996 28.8687 24.2392 28.523 24.4563 28.2087C24.6734 27.8943 24.9447 27.5082 25.0532 27.3465C25.1663 27.1848 25.2974 27.0052 25.3472 26.9424C25.3969 26.8795 25.4648 26.7762 25.4919 26.7044C25.5236 26.637 25.5643 26.5831 25.5823 26.5831C25.6004 26.5831 25.6502 26.5158 25.6909 26.435C25.7316 26.3586 25.7813 26.2823 25.7994 26.2688C25.813 26.2553 25.9893 26.0129 26.1838 25.73C26.3783 25.4471 26.5953 25.1417 26.6632 25.0519C26.7355 24.9621 26.7943 24.8723 26.7943 24.8588C26.7943 24.8364 27.2149 24.2302 27.3279 24.091C27.346 24.064 27.4229 23.9563 27.4998 23.844C27.5767 23.7317 27.753 23.4803 27.8887 23.2827C28.0244 23.0851 28.3545 22.6091 28.6213 22.2274C28.8836 21.8458 29.1368 21.482 29.1821 21.4237C29.2996 21.262 29.7157 20.6648 30.2131 19.9463L30.6608 19.2997L30.6699 18.918C30.6789 18.6531 30.7015 18.5094 30.7468 18.46C30.7829 18.4196 30.8553 18.2939 30.905 18.1861C30.9955 17.993 31 17.8987 31 15.8511V13.7181L30.8869 13.4936C30.6654 13.0401 30.2629 12.7527 29.8468 12.7527H29.6433V11.9489C29.6433 11.5044 29.6252 11.1317 29.6026 11.1182C29.5845 11.1047 29.5529 10.8757 29.5348 10.6108C29.5031 10.0809 29.4217 9.56452 29.3675 9.56452C29.3539 9.56452 29.3222 9.44777 29.3042 9.30408C29.2725 9.00323 29.1956 8.69788 29.1504 8.66645C29.1323 8.65298 29.0735 8.46438 29.0193 8.24435C28.965 8.02432 28.9062 7.83123 28.8836 7.81776C28.861 7.80429 28.7977 7.64264 28.7389 7.46302C28.6801 7.28789 28.6168 7.13971 28.5987 7.13971C28.5806 7.13971 28.5489 7.07684 28.5354 7.00051C28.5173 6.91968 28.4449 6.76701 28.3726 6.65475C28.3002 6.54249 28.2233 6.38532 28.1917 6.30001C28.1646 6.21918 28.1284 6.15182 28.1058 6.15182C28.0877 6.15182 28.0289 6.04854 27.9746 5.9273C27.9204 5.80157 27.8616 5.70278 27.8389 5.70278C27.8209 5.70278 27.7666 5.61297 27.7168 5.50071C27.6716 5.38845 27.6174 5.29865 27.5993 5.29865C27.5767 5.29865 27.5224 5.23129 27.4726 5.15046C27.3732 4.98432 27.346 4.9484 26.9752 4.49038C26.826 4.30627 26.6451 4.09073 26.5727 4.01888C26.5004 3.94255 26.3737 3.80334 26.2878 3.70007C26.1295 3.51147 25.7225 3.14775 25.1256 2.66278C24.9357 2.51011 24.7503 2.35744 24.7096 2.32151C24.6689 2.28559 24.5739 2.21823 24.4925 2.17333C24.4156 2.12842 24.3523 2.07454 24.3523 2.05658C24.3523 2.03862 24.2619 1.98024 24.1533 1.93085C24.0403 1.88145 23.9408 1.82308 23.9272 1.80063C23.9091 1.77818 23.8051 1.71531 23.683 1.65694C23.5654 1.60305 23.4524 1.52671 23.4343 1.49528C23.4162 1.46385 23.3619 1.4369 23.3167 1.4369C23.276 1.4369 23.172 1.38751 23.0906 1.32913C23.0092 1.27076 22.8419 1.18544 22.7152 1.14503C22.5886 1.10462 22.4575 1.04175 22.4213 1.01031C22.3896 0.974392 22.2404 0.911526 22.0912 0.871115C21.9419 0.8307 21.8198 0.781304 21.8198 0.763345C21.8198 0.745382 21.6706 0.6915 21.4942 0.651086C21.3133 0.606182 21.1505 0.552297 21.137 0.529846C21.1234 0.507394 20.9199 0.449017 20.6893 0.404113C20.4586 0.354718 20.2461 0.296344 20.219 0.273892C20.1647 0.228985 20.029 0.211026 19.2874 0.134689C19.0025 0.103256 18.7311 0.0628444 18.6904 0.0403926C18.5864 -0.0134923 12.3683 -0.0134923 12.3683 0.0403926ZM13.5441 7.33729C13.6301 7.38219 13.9285 7.53936 14.1999 7.67856C14.4757 7.81776 14.833 8.00636 15.0003 8.10066C15.3078 8.26231 15.4344 8.29374 15.5158 8.2219C15.5384 8.20393 15.8098 8.05126 16.1218 7.8941C16.4338 7.73244 16.9087 7.48547 17.1755 7.34178L17.6684 7.08582L17.6368 7.35076C17.6187 7.49445 17.578 7.7549 17.5418 7.93002C17.5101 8.10515 17.4649 8.39702 17.4514 8.58113C17.4333 8.76524 17.4061 8.93138 17.388 8.95832C17.3699 8.98077 17.3292 9.15141 17.3021 9.33551L17.2478 9.66781L17.5734 9.96417C18.1885 10.53 19.0613 11.3966 19.0613 11.4415C19.0613 11.4685 18.9753 11.4999 18.8713 11.5178C18.2337 11.6077 17.1845 11.7558 16.9132 11.7873C16.7911 11.8007 16.6554 11.8232 16.6147 11.8367C16.574 11.8501 16.2937 12.3441 15.9635 12.9997C15.647 13.6283 15.3711 14.1313 15.3485 14.1178C15.3259 14.1043 15.0636 13.5969 14.7606 12.9862C14.4621 12.3755 14.1908 11.8636 14.1637 11.8456C14.1365 11.8322 13.9737 11.8052 13.7974 11.7873C13.621 11.7738 13.3135 11.7289 13.1145 11.6975C12.7346 11.6301 11.794 11.4954 11.6991 11.4954C11.586 11.4954 11.6538 11.3966 11.9749 11.0958C12.1513 10.9251 12.5628 10.5345 12.8839 10.2201L13.4673 9.65433L13.4356 9.39838C13.4175 9.25469 13.3678 8.93587 13.318 8.6889C13.2366 8.26231 13.0467 7.17114 13.0467 7.12175C13.0467 7.09481 13.2999 7.20258 13.5441 7.33729ZM3.59519 14.8722C3.7806 14.9036 3.9434 14.9395 3.95697 14.953C3.9841 14.9889 4.61269 15.1191 4.95186 15.1596C5.08753 15.173 5.21415 15.209 5.22772 15.2314C5.24128 15.2539 5.43574 15.3033 5.65733 15.3392C5.87892 15.3796 6.10051 15.429 6.15026 15.4514C6.25427 15.5008 7.14515 15.6715 7.28986 15.6715C7.34865 15.6715 7.39387 15.6894 7.39387 15.7074C7.39387 15.7478 7.65164 15.8107 8.20788 15.9005C8.39329 15.9319 8.55609 15.9723 8.56966 15.9858C8.58322 16.0038 8.78672 16.0532 9.02188 16.0981C9.25704 16.1385 9.47411 16.1879 9.49672 16.2058C9.54646 16.2417 9.97608 16.3226 10.3559 16.372C10.4826 16.3854 10.6273 16.4259 10.6815 16.4618C10.7358 16.4977 10.9619 16.5516 11.179 16.5875C11.4006 16.6234 11.6267 16.6728 11.69 16.6998C11.8166 16.7492 12.6985 16.9063 12.6985 16.9063C12.6985 16.9063 12.911 16.9512 12.911 16.9737C12.911 16.9916 13.1055 17.041 13.1055 17.041C13.1055 17.041 14.1772 17.2207 14.1772 17.2521L14.3943 17.3105L14.8058 17.4093C14.8058 17.4093 15.0139 17.4676 15.0274 17.4317C15.0365 17.3958 15.1586 17.3778 15.344 17.3778C15.7103 17.3778 16.2168 17.306 16.253 17.2566C16.2846 17.2117 17.0082 17.0815 17.4242 17.0455C17.5825 17.0321 17.7543 16.9872 17.8086 16.9512C17.8629 16.9153 17.9805 16.8839 18.0709 16.8839C18.2427 16.8839 18.8352 16.7716 18.9934 16.7087C19.0432 16.6863 19.2693 16.6369 19.4909 16.592C19.717 16.5516 19.9069 16.4977 19.9205 16.4797C19.9341 16.4618 20.0245 16.4348 20.124 16.4214C20.8928 16.3091 21.1641 16.2552 21.1777 16.2148C21.1867 16.1879 21.25 16.1654 21.3224 16.1654C21.5214 16.1654 22.15 16.0352 22.1771 15.9903C22.1907 15.9678 22.3263 15.9364 22.4756 15.9184C22.869 15.878 23.4478 15.7523 23.4478 15.7119C23.4478 15.6939 23.5654 15.667 23.7101 15.649C24.0764 15.6086 24.6824 15.4874 24.7367 15.4469C24.7638 15.4245 24.8859 15.3976 25.008 15.3796C25.3065 15.3437 25.6818 15.2539 25.709 15.2179C25.7225 15.2 25.8853 15.1641 26.0708 15.1371C26.5772 15.0653 26.9028 14.9934 26.93 14.953C26.9435 14.935 27.1154 14.8946 27.3144 14.8722C27.5133 14.8452 27.7214 14.8093 27.7756 14.7958L27.8751 14.7644L27.8887 16.4169C27.9023 18.2849 27.8977 18.24 28.264 18.5992L28.454 18.7878L28.35 18.945C28.2912 19.0348 28.1826 19.1919 28.1058 19.2952C28.0334 19.3985 27.9701 19.5018 27.9701 19.5197C27.9701 19.5377 27.9203 19.614 27.857 19.6859C27.7937 19.7577 27.744 19.8296 27.744 19.8475C27.744 19.861 27.7078 19.9149 27.6581 19.9643C27.5812 20.0496 27.3867 20.3235 27.2691 20.5166C27.2465 20.5615 27.1154 20.7411 26.9842 20.9252C26.8531 21.1093 26.6044 21.4641 26.4325 21.7111C26.2607 21.958 26.1024 22.1781 26.0798 22.205C26.0617 22.2274 25.9939 22.3307 25.9351 22.4295C25.8763 22.5283 25.813 22.6181 25.7994 22.6316C25.7858 22.6451 25.6818 22.7843 25.5733 22.9459C25.4648 23.1076 25.302 23.3411 25.2115 23.4668C25.1256 23.5925 24.9899 23.7901 24.9085 23.9024C24.6598 24.2616 24.5558 24.4053 24.5332 24.4277C24.5196 24.4412 24.4111 24.6029 24.2845 24.787C24.1624 24.9711 24.0403 25.1462 24.0131 25.1731C23.9905 25.2046 23.8368 25.4201 23.674 25.6626C23.5112 25.9006 23.3574 26.1296 23.3257 26.17C23.2805 26.2374 23.2489 26.2329 22.9911 26.1116C22.7062 25.9769 22.462 25.7704 22.2042 25.4426C22.1319 25.3483 22.0324 25.236 21.9917 25.1956C21.9465 25.1597 21.9103 25.1013 21.9103 25.0744C21.9103 25.0295 21.2003 24.3065 20.7481 23.8889C20.4315 23.597 19.8346 23.2513 19.4999 23.1659C19.3823 23.139 19.2874 23.0986 19.2874 23.0806C19.2874 23.0447 19.016 22.9684 18.7221 22.9235C18.6226 22.9055 18.5231 22.8786 18.496 22.8561C18.4191 22.7977 17.9443 22.7124 17.275 22.6451C16.5288 22.5642 14.5978 22.5193 14.5209 22.5777C14.4938 22.6002 14.2179 22.6316 13.9059 22.6495C13.3271 22.681 12.504 22.8022 12.504 22.8606C12.504 22.8786 12.409 22.9055 12.2915 22.9235C12.0654 22.9549 11.7714 23.0402 11.7352 23.0851C11.7217 23.0986 11.577 23.157 11.4096 23.2108C11.2378 23.2692 11.1021 23.3276 11.1021 23.3411C11.1021 23.359 10.9891 23.4219 10.8534 23.4803C10.7177 23.5431 10.6001 23.615 10.5866 23.6509C10.573 23.6823 10.5233 23.7093 10.4826 23.7093C10.4373 23.7093 10.3469 23.7632 10.2836 23.8305C10.2203 23.9024 10.0077 24.1134 9.80875 24.302C9.6143 24.4906 9.37914 24.7421 9.29322 24.8543C8.75055 25.5638 8.4159 25.9051 8.08578 26.0892C7.80088 26.2508 7.67878 26.2508 7.57929 26.0802C7.53859 26.0173 7.42553 25.8467 7.32604 25.7075C7.22655 25.5638 7.11349 25.4022 7.07732 25.3483C6.71101 24.8004 6.47133 24.4457 6.44872 24.4277C6.43516 24.4143 6.3221 24.2526 6.19548 24.0685C6.07338 23.8844 5.94223 23.7138 5.9151 23.6958C5.88344 23.6778 5.85631 23.6374 5.85179 23.606C5.85179 23.5746 5.80656 23.4892 5.7523 23.4129C5.69803 23.3366 5.55784 23.1345 5.44026 22.9639C5.32268 22.7932 5.14632 22.5418 5.04683 22.4071C4.94734 22.2724 4.82976 22.0972 4.78906 22.0254C4.74836 21.949 4.62626 21.7739 4.51772 21.6302C4.40919 21.491 4.31875 21.3608 4.31875 21.3473C4.31875 21.3339 4.20117 21.1542 4.05646 20.9567C3.91174 20.7546 3.6992 20.4448 3.58162 20.2741C3.46404 20.099 3.31028 19.879 3.23341 19.7802C3.16105 19.6814 3.07965 19.5602 3.05252 19.5108C3.00277 19.4075 2.72691 19.0078 2.63647 18.9046C2.60481 18.8641 2.55055 18.7788 2.51437 18.716C2.45558 18.6037 2.4601 18.5857 2.64099 18.3837C2.94398 18.0379 2.96207 17.9301 2.96207 16.2417V14.7644L3.11131 14.7913C3.18818 14.8048 3.40977 14.8452 3.59519 14.8722ZM17.3926 26.7852C18.3196 26.9244 18.7176 27.0591 19.7215 27.571C20.5265 27.9796 21.0104 28.1638 21.4988 28.2401C21.657 28.267 21.7927 28.294 21.8063 28.303C21.8696 28.3703 21.0601 29.1382 20.6667 29.3896C20.2371 29.6635 19.5225 29.9509 19.1155 30.0183C18.9301 30.0497 18.9075 30.0407 18.7718 29.9015C18.5638 29.686 18.4417 29.6052 18.1568 29.4884C17.9126 29.3896 17.881 29.3896 15.7148 29.3896H13.5215L13.2276 29.5288C13.0648 29.6097 12.8206 29.7668 12.6849 29.8791C12.5266 30.0093 12.3955 30.0856 12.3186 30.0856C12.1694 30.0856 11.5182 29.9599 11.3961 29.906C11.3463 29.8881 11.2152 29.8342 11.1021 29.7938C10.5594 29.5962 9.80875 29.0798 9.40627 28.6352C9.27061 28.4826 9.15755 28.3434 9.15755 28.3299C9.15755 28.3164 9.30678 28.276 9.48767 28.2446C9.99417 28.1548 10.6454 27.9123 11.3508 27.5441C11.7036 27.36 12.1603 27.1489 12.3638 27.0771C12.807 26.9154 13.6165 26.7627 14.2903 26.7134C15.0319 26.664 16.8363 26.7044 17.3926 26.7852Z" fill="black"/>
</svg>
