<svg width="216" height="232" viewBox="0 0 216 232" fill="none" xmlns="http://www.w3.org/2000/svg">
<path d="M170.548 155.395C179.245 148.856 186.836 143.046 194.852 134.784C199.07 130.65 203.183 126.313 206.507 121.681C216.531 107.479 220.765 90.2952 208.31 68.3369C205.526 62.5626 202.373 57.3029 198.798 52.0488C188.284 36.6916 174.238 23.93 158.184 16.2927C104.813 -8.89516 27.1311 -8.57854 0.882292 51.6152C0.189715 58.0473 0.813141 64.9718 3.01684 71.6714C9.57989 87.9986 21.2009 102.627 27.6589 118.752C29.3392 122.808 30.5982 126.869 31.5409 131.139C33.2491 155.279 34.3698 186.053 54.8918 200.258C84.2037 218.73 136.195 252.704 154.517 214.841C160.644 200.487 153.35 178.664 165.11 165.764C166.43 162.994 168.278 159.605 170.548 155.395Z" fill="#566531"/>
</svg>
