<svg width="40" height="40" viewBox="0 0 40 40" fill="none" xmlns="http://www.w3.org/2000/svg">
<rect x="0.18457" width="39.2632" height="39.2632" rx="4" fill="#566531"/>
<path fill-rule="evenodd" clip-rule="evenodd" d="M20.8428 26.074C20.8428 26.074 21.2208 26.0328 21.4143 25.8287C21.5915 25.6417 21.5854 25.2888 21.5854 25.2888C21.5854 25.2888 21.5618 23.6411 22.3412 23.3978C23.1094 23.1585 24.0957 24.9913 25.1424 25.696C25.9331 26.2288 26.5333 26.1122 26.5333 26.1122L29.3303 26.074C29.3303 26.074 30.7929 25.9855 30.0995 24.8565C30.0422 24.7641 29.6949 24.0211 28.0204 22.495C26.2659 20.8975 26.5015 21.1559 28.6134 18.3922C29.8998 16.7092 30.4139 15.6818 30.2531 15.2424C30.1005 14.8222 29.1542 14.9338 29.1542 14.9338L26.0058 14.9529C26.0058 14.9529 25.7723 14.9217 25.5992 15.0233C25.4302 15.1228 25.3206 15.355 25.3206 15.355C25.3206 15.355 24.8229 16.6569 24.1582 17.7648C22.756 20.1013 22.1958 20.2249 21.9664 20.0801C21.4328 19.7413 21.5659 18.7209 21.5659 17.9961C21.5659 15.731 21.9162 14.787 20.8848 14.5427C20.5427 14.4613 20.2908 14.408 19.4151 14.3989C18.2916 14.3879 17.3411 14.403 16.8024 14.6613C16.4439 14.8332 16.1674 15.2173 16.3364 15.2394C16.5443 15.2666 17.0154 15.3641 17.2653 15.6978C17.5879 16.1291 17.5767 17.0963 17.5767 17.0963C17.5767 17.0963 17.7621 19.7625 17.1434 20.0932C16.7194 20.3204 16.1377 19.857 14.8871 17.7367C14.247 16.6509 13.7636 15.4505 13.7636 15.4505C13.7636 15.4505 13.6704 15.2263 13.5035 15.1057C13.3017 14.9599 13.02 14.9147 13.02 14.9147L10.0284 14.9338C10.0284 14.9338 9.57875 14.9458 9.41385 15.1379C9.26739 15.3078 9.40259 15.6606 9.40259 15.6606C9.40259 15.6606 11.7449 21.0403 14.3976 23.7517C16.83 26.2369 19.5913 26.074 19.5913 26.074H20.8428Z" fill="white"/>
</svg>
